<mxfile host="app.diagrams.net" agent="Mozilla/5.0 (Macintosh; Intel Mac OS X 10_15_7) AppleWebKit/537.36 (KHTML, like Gecko) Chrome/129.0.0.0 Safari/537.36" version="24.8.1" pages="2">
  <diagram name="Page-1" id="z_Gu7VJD9jsG575t3YCf">
    <mxGraphModel dx="1026" dy="684" grid="0" gridSize="2" guides="1" tooltips="1" connect="1" arrows="1" fold="1" page="1" pageScale="1" pageWidth="3300" pageHeight="4681" background="#4D5766" math="0" shadow="0">
      <root>
        <mxCell id="0" />
        <mxCell id="1" parent="0" />
        <mxCell id="HGMKZrDhag_7oUJbCoah-1" value="" style="rounded=1;whiteSpace=wrap;html=1;arcSize=2;fillColor=#001135;" vertex="1" parent="1">
          <mxGeometry x="183" y="356" width="281" height="265" as="geometry" />
        </mxCell>
        <mxCell id="HGMKZrDhag_7oUJbCoah-2" value="&lt;div style=&quot;color: rgb(204, 202, 194); font-size: 16px; line-height: 20px; white-space-collapse: preserve;&quot;&gt;&lt;div style=&quot;font-size: 16px;&quot;&gt;&lt;font style=&quot;font-size: 16px;&quot; data-font-src=&quot;https://fonts.googleapis.com/css?family=Google+Sans&quot;&gt;    &lt;span style=&quot;color: rgb(255, 173, 102); font-size: 16px;&quot;&gt;def&lt;/span&gt; &lt;span style=&quot;color: rgb(255, 209, 115); font-size: 16px;&quot;&gt;_get_schema&lt;/span&gt;(&lt;span style=&quot;color: rgb(223, 191, 255); font-size: 16px;&quot;&gt;self&lt;/span&gt;):&lt;/font&gt;&lt;/div&gt;&lt;div style=&quot;font-size: 16px;&quot;&gt;&lt;font style=&quot;font-size: 16px;&quot;&gt;        root &lt;span style=&quot;color: rgb(242, 158, 116); font-size: 16px;&quot;&gt;=&lt;/span&gt; &lt;span style=&quot;color: rgb(255, 209, 115); font-size: 16px;&quot;&gt;FixedSchemaRoot&lt;/span&gt;()&lt;/font&gt;&lt;/div&gt;&lt;div style=&quot;font-size: 16px;&quot;&gt;&lt;font style=&quot;font-size: 16px;&quot;&gt;        root.&lt;span style=&quot;color: rgb(255, 209, 115); font-size: 16px;&quot;&gt;add_child&lt;/span&gt;(&lt;/font&gt;&lt;/div&gt;&lt;div style=&quot;font-size: 16px;&quot;&gt;&lt;font style=&quot;font-size: 16px;&quot;&gt;            &lt;span style=&quot;color: rgb(213, 255, 128); font-size: 16px;&quot;&gt;&quot;uptime&quot;&lt;/span&gt;,&lt;/font&gt;&lt;/div&gt;&lt;div style=&quot;font-size: 16px;&quot;&gt;&lt;font style=&quot;font-size: 16px;&quot;&gt;            &lt;span style=&quot;color: rgb(223, 191, 255); font-size: 16px;&quot;&gt;fields&lt;/span&gt;&lt;span style=&quot;color: rgb(242, 158, 116); font-size: 16px;&quot;&gt;=&lt;/span&gt;[&lt;/font&gt;&lt;/div&gt;&lt;div style=&quot;font-size: 16px;&quot;&gt;&lt;font style=&quot;font-size: 16px;&quot;&gt;                &lt;span style=&quot;color: rgb(213, 255, 128); font-size: 16px;&quot;&gt;&quot;Uptime&quot;&lt;/span&gt;,&lt;/font&gt;&lt;/div&gt;&lt;div style=&quot;font-size: 16px;&quot;&gt;&lt;font style=&quot;font-size: 16px;&quot;&gt;                &lt;span style=&quot;color: rgb(213, 255, 128); font-size: 16px;&quot;&gt;&quot;Last Booted&quot;&lt;/span&gt;,&lt;/font&gt;&lt;/div&gt;&lt;div style=&quot;font-size: 16px;&quot;&gt;&lt;font style=&quot;font-size: 16px;&quot;&gt;            ],&lt;/font&gt;&lt;/div&gt;&lt;div style=&quot;font-size: 16px;&quot;&gt;&lt;font style=&quot;font-size: 16px;&quot;&gt;        )&lt;/font&gt;&lt;/div&gt;&lt;div style=&quot;font-size: 16px;&quot;&gt;&lt;font style=&quot;font-size: 16px;&quot;&gt;        &lt;span style=&quot;color: rgb(255, 173, 102); font-size: 16px;&quot;&gt;return&lt;/span&gt; root&lt;/font&gt;&lt;/div&gt;&lt;/div&gt;" style="text;html=1;align=left;verticalAlign=middle;resizable=0;points=[];autosize=1;strokeColor=none;fillColor=none;fontSize=16;fontFamily=JetBrains Mono;fontSource=https%3A%2F%2Ffonts.googleapis.com%2Fcss%3Ffamily%3DJetBrains%2BMono;" vertex="1" parent="1">
          <mxGeometry x="206" y="392" width="222" height="212" as="geometry" />
        </mxCell>
        <mxCell id="HGMKZrDhag_7oUJbCoah-6" value="" style="rounded=1;whiteSpace=wrap;html=1;arcSize=2;fillColor=#001135;strokeColor=none;fillStyle=auto;strokeWidth=0;perimeterSpacing=2;" vertex="1" parent="1">
          <mxGeometry x="1359" y="526" width="281" height="265" as="geometry" />
        </mxCell>
        <mxCell id="HGMKZrDhag_7oUJbCoah-7" value="" style="verticalLabelPosition=bottom;verticalAlign=top;html=1;shape=mxgraph.basic.rect;fillColor2=none;strokeWidth=1;size=5.19;indent=50;topLeftStyle=rounded;topRightStyle=rounded;strokeColor=none;fillColor=#273142;" vertex="1" parent="1">
          <mxGeometry x="1359" y="526" width="281" height="32" as="geometry" />
        </mxCell>
        <mxCell id="HGMKZrDhag_7oUJbCoah-8" value="&lt;font color=&quot;#ffffff&quot;&gt;/ &lt;span style=&quot;font-weight: normal;&quot;&gt;(root)&lt;/span&gt;&lt;/font&gt;" style="text;html=1;align=left;verticalAlign=middle;resizable=0;points=[];autosize=1;strokeColor=none;fillColor=none;fontSize=16;fontFamily=Google Sans;fontSource=https%3A%2F%2Ffonts.googleapis.com%2Fcss%3Ffamily%3DGoogle%2BSans;fontStyle=1" vertex="1" parent="1">
          <mxGeometry x="1363" y="525" width="67" height="31" as="geometry" />
        </mxCell>
        <mxCell id="HGMKZrDhag_7oUJbCoah-9" value="" style="rounded=1;whiteSpace=wrap;html=1;arcSize=2;fillColor=#98a2ae;fontColor=#edf3f5;strokeColor=none;fillStyle=solid;" vertex="1" parent="1">
          <mxGeometry x="1397" y="582" width="211" height="180" as="geometry" />
        </mxCell>
        <mxCell id="HGMKZrDhag_7oUJbCoah-10" value="" style="verticalLabelPosition=bottom;verticalAlign=top;html=1;shape=mxgraph.basic.rect;fillColor2=none;strokeWidth=1;size=3.89;indent=99.13;topLeftStyle=rounded;topRightStyle=rounded;strokeColor=none;fillColor=#EDF3F5;" vertex="1" parent="1">
          <mxGeometry x="1397" y="582" width="211" height="32" as="geometry" />
        </mxCell>
        <mxCell id="HGMKZrDhag_7oUJbCoah-11" value="&lt;font color=&quot;#001135&quot;&gt;uptime&lt;/font&gt;" style="text;html=1;align=left;verticalAlign=middle;resizable=0;points=[];autosize=1;strokeColor=none;fillColor=none;fontSize=16;fontFamily=Google Sans;fontSource=https%3A%2F%2Ffonts.googleapis.com%2Fcss%3Ffamily%3DGoogle%2BSans;fontStyle=1" vertex="1" parent="1">
          <mxGeometry x="1403" y="583" width="69" height="31" as="geometry" />
        </mxCell>
        <mxCell id="HGMKZrDhag_7oUJbCoah-12" value="&lt;font style=&quot;font-size: 14px;&quot;&gt;container&lt;/font&gt;" style="text;html=1;align=right;verticalAlign=middle;resizable=0;points=[];autosize=1;strokeColor=none;fillColor=none;fontSize=14;fontFamily=Google Sans;fontSource=https%3A%2F%2Ffonts.googleapis.com%2Fcss%3Ffamily%3DGoogle%2BSans;fontColor=#98A2AE;" vertex="1" parent="1">
          <mxGeometry x="1558" y="526" width="78" height="29" as="geometry" />
        </mxCell>
        <mxCell id="HGMKZrDhag_7oUJbCoah-13" value="&lt;font style=&quot;font-size: 14px;&quot; color=&quot;#bec8d2&quot;&gt;container&lt;/font&gt;" style="text;html=1;align=right;verticalAlign=middle;resizable=0;points=[];autosize=1;strokeColor=none;fillColor=none;fontSize=14;fontFamily=Google Sans;fontSource=https%3A%2F%2Ffonts.googleapis.com%2Fcss%3Ffamily%3DGoogle%2BSans;" vertex="1" parent="1">
          <mxGeometry x="1527" y="585" width="78" height="29" as="geometry" />
        </mxCell>
        <mxCell id="HGMKZrDhag_7oUJbCoah-15" value="" style="endArrow=none;dashed=1;html=1;dashPattern=1 3;strokeWidth=2;rounded=0;strokeColor=#EDF3F5;entryX=0.053;entryY=1.071;entryDx=0;entryDy=0;entryPerimeter=0;exitX=-0.008;exitY=0.094;exitDx=0;exitDy=0;exitPerimeter=0;" edge="1" parent="1" source="HGMKZrDhag_7oUJbCoah-9" target="HGMKZrDhag_7oUJbCoah-7">
          <mxGeometry width="50" height="50" relative="1" as="geometry">
            <mxPoint x="1387" y="729" as="sourcePoint" />
            <mxPoint x="1437" y="679" as="targetPoint" />
            <Array as="points">
              <mxPoint x="1374" y="599" />
            </Array>
          </mxGeometry>
        </mxCell>
        <mxCell id="HGMKZrDhag_7oUJbCoah-16" value="Uptime" style="rounded=1;whiteSpace=wrap;html=1;arcSize=50;fillColor=#EDF3F5;strokeColor=none;fontSize=14;align=left;spacingLeft=6;" vertex="1" parent="1">
          <mxGeometry x="1430" y="641" width="105" height="35" as="geometry" />
        </mxCell>
        <mxCell id="HGMKZrDhag_7oUJbCoah-19" value="Last Booted" style="rounded=1;whiteSpace=wrap;html=1;arcSize=50;fillColor=#EDF3F5;strokeColor=none;fontSize=14;align=left;spacingLeft=6;" vertex="1" parent="1">
          <mxGeometry x="1430" y="688" width="105" height="35" as="geometry" />
        </mxCell>
        <mxCell id="HGMKZrDhag_7oUJbCoah-20" value="" style="endArrow=none;dashed=1;html=1;dashPattern=1 3;strokeWidth=2;rounded=0;strokeColor=#EDF3F5;entryX=0.053;entryY=1.071;entryDx=0;entryDy=0;entryPerimeter=0;exitX=0;exitY=0.5;exitDx=0;exitDy=0;" edge="1" parent="1" source="HGMKZrDhag_7oUJbCoah-16">
          <mxGeometry width="50" height="50" relative="1" as="geometry">
            <mxPoint x="1430" y="653" as="sourcePoint" />
            <mxPoint x="1409" y="614" as="targetPoint" />
            <Array as="points">
              <mxPoint x="1410" y="659" />
            </Array>
          </mxGeometry>
        </mxCell>
        <mxCell id="HGMKZrDhag_7oUJbCoah-21" value="" style="endArrow=none;dashed=1;html=1;dashPattern=1 3;strokeWidth=2;rounded=0;strokeColor=#EDF3F5;exitX=0;exitY=0.5;exitDx=0;exitDy=0;" edge="1" parent="1" source="HGMKZrDhag_7oUJbCoah-19">
          <mxGeometry width="50" height="50" relative="1" as="geometry">
            <mxPoint x="1430" y="704" as="sourcePoint" />
            <mxPoint x="1410" y="659" as="targetPoint" />
            <Array as="points">
              <mxPoint x="1411" y="706" />
            </Array>
          </mxGeometry>
        </mxCell>
        <mxCell id="HGMKZrDhag_7oUJbCoah-23" value="leaf" style="verticalLabelPosition=middle;verticalAlign=middle;html=1;shape=mxgraph.basic.rect;fillColor2=none;strokeWidth=1;size=16;indent=100;topLeftStyle=default;topRightStyle=rounded;strokeColor=none;fillColor=#BEC8D2;bottomRightStyle=rounded;labelPosition=center;align=center;spacing=0;spacingRight=3;fontColor=#FFFFFF;" vertex="1" parent="1">
          <mxGeometry x="1518" y="641" width="32" height="35" as="geometry" />
        </mxCell>
        <mxCell id="HGMKZrDhag_7oUJbCoah-27" value="leaf" style="verticalLabelPosition=middle;verticalAlign=middle;html=1;shape=mxgraph.basic.rect;fillColor2=none;strokeWidth=1;size=16;indent=100;topLeftStyle=default;topRightStyle=rounded;strokeColor=none;fillColor=#BEC8D2;bottomRightStyle=rounded;labelPosition=center;align=center;spacing=0;spacingRight=3;fontColor=#FFFFFF;" vertex="1" parent="1">
          <mxGeometry x="1518" y="688" width="32" height="35" as="geometry" />
        </mxCell>
        <mxCell id="HGMKZrDhag_7oUJbCoah-28" value="" style="endArrow=classic;html=1;rounded=0;strokeColor=#EDF3F5;strokeWidth=4;endFill=1;" edge="1" parent="1">
          <mxGeometry width="50" height="50" relative="1" as="geometry">
            <mxPoint x="498" y="494" as="sourcePoint" />
            <mxPoint x="585" y="494" as="targetPoint" />
          </mxGeometry>
        </mxCell>
        <mxCell id="HGMKZrDhag_7oUJbCoah-44" value="" style="rounded=1;whiteSpace=wrap;html=1;arcSize=2;fillColor=none;strokeColor=default;fillStyle=dots;strokeWidth=2;perimeterSpacing=2;dashed=1;gradientColor=none;" vertex="1" parent="1">
          <mxGeometry x="625" y="357" width="281" height="265" as="geometry" />
        </mxCell>
        <mxCell id="HGMKZrDhag_7oUJbCoah-45" value="" style="verticalLabelPosition=bottom;verticalAlign=top;html=1;shape=mxgraph.basic.rect;fillColor2=none;strokeWidth=1;size=5.19;indent=50;topLeftStyle=rounded;topRightStyle=rounded;strokeColor=none;fillColor=#273142;fillStyle=solid;" vertex="1" parent="1">
          <mxGeometry x="625" y="357" width="281" height="32" as="geometry" />
        </mxCell>
        <mxCell id="HGMKZrDhag_7oUJbCoah-46" value="&lt;font color=&quot;#ffffff&quot;&gt;/ &lt;span style=&quot;font-weight: normal;&quot;&gt;(root)&lt;/span&gt;&lt;/font&gt;" style="text;html=1;align=left;verticalAlign=middle;resizable=0;points=[];autosize=1;strokeColor=none;fillColor=none;fontSize=16;fontFamily=Google Sans;fontSource=https%3A%2F%2Ffonts.googleapis.com%2Fcss%3Ffamily%3DGoogle%2BSans;fontStyle=1" vertex="1" parent="1">
          <mxGeometry x="629" y="356" width="67" height="31" as="geometry" />
        </mxCell>
        <mxCell id="HGMKZrDhag_7oUJbCoah-47" value="" style="rounded=1;whiteSpace=wrap;html=1;arcSize=2;fillColor=none;fontColor=#edf3f5;strokeColor=#98A2AE;dashed=1;strokeWidth=2;" vertex="1" parent="1">
          <mxGeometry x="663" y="413" width="211" height="180" as="geometry" />
        </mxCell>
        <mxCell id="HGMKZrDhag_7oUJbCoah-48" value="" style="verticalLabelPosition=bottom;verticalAlign=top;html=1;shape=mxgraph.basic.rect;fillColor2=none;strokeWidth=1;size=3.89;indent=99.13;topLeftStyle=rounded;topRightStyle=rounded;strokeColor=none;fillColor=#EDF3F5;" vertex="1" parent="1">
          <mxGeometry x="663" y="413" width="211" height="32" as="geometry" />
        </mxCell>
        <mxCell id="HGMKZrDhag_7oUJbCoah-49" value="&lt;font color=&quot;#001135&quot;&gt;uptime&lt;/font&gt;" style="text;html=1;align=left;verticalAlign=middle;resizable=0;points=[];autosize=1;strokeColor=none;fillColor=none;fontSize=16;fontFamily=Google Sans;fontSource=https%3A%2F%2Ffonts.googleapis.com%2Fcss%3Ffamily%3DGoogle%2BSans;fontStyle=1" vertex="1" parent="1">
          <mxGeometry x="669" y="414" width="69" height="31" as="geometry" />
        </mxCell>
        <mxCell id="HGMKZrDhag_7oUJbCoah-50" value="&lt;font style=&quot;font-size: 14px;&quot;&gt;container&lt;/font&gt;" style="text;html=1;align=right;verticalAlign=middle;resizable=0;points=[];autosize=1;strokeColor=none;fillColor=none;fontSize=14;fontFamily=Google Sans;fontSource=https%3A%2F%2Ffonts.googleapis.com%2Fcss%3Ffamily%3DGoogle%2BSans;fontColor=#98A2AE;" vertex="1" parent="1">
          <mxGeometry x="824" y="357" width="78" height="29" as="geometry" />
        </mxCell>
        <mxCell id="HGMKZrDhag_7oUJbCoah-51" value="&lt;font style=&quot;font-size: 14px;&quot; color=&quot;#bec8d2&quot;&gt;container&lt;/font&gt;" style="text;html=1;align=right;verticalAlign=middle;resizable=0;points=[];autosize=1;strokeColor=none;fillColor=none;fontSize=14;fontFamily=Google Sans;fontSource=https%3A%2F%2Ffonts.googleapis.com%2Fcss%3Ffamily%3DGoogle%2BSans;" vertex="1" parent="1">
          <mxGeometry x="793" y="416" width="78" height="29" as="geometry" />
        </mxCell>
        <mxCell id="HGMKZrDhag_7oUJbCoah-52" value="" style="endArrow=none;dashed=1;html=1;dashPattern=1 3;strokeWidth=2;rounded=0;strokeColor=#EDF3F5;entryX=0.053;entryY=1.071;entryDx=0;entryDy=0;entryPerimeter=0;exitX=-0.008;exitY=0.094;exitDx=0;exitDy=0;exitPerimeter=0;" edge="1" parent="1" source="HGMKZrDhag_7oUJbCoah-47" target="HGMKZrDhag_7oUJbCoah-45">
          <mxGeometry width="50" height="50" relative="1" as="geometry">
            <mxPoint x="653" y="560" as="sourcePoint" />
            <mxPoint x="703" y="510" as="targetPoint" />
            <Array as="points">
              <mxPoint x="640" y="430" />
            </Array>
          </mxGeometry>
        </mxCell>
        <mxCell id="HGMKZrDhag_7oUJbCoah-53" value="Uptime" style="rounded=1;whiteSpace=wrap;html=1;arcSize=50;fillColor=none;strokeColor=#FFFFFF;fontSize=14;align=left;spacingLeft=6;dashed=1;dashPattern=8 8;fontColor=#FFFFFF;" vertex="1" parent="1">
          <mxGeometry x="696" y="472" width="121" height="35" as="geometry" />
        </mxCell>
        <mxCell id="HGMKZrDhag_7oUJbCoah-54" value="Last Booted" style="rounded=1;whiteSpace=wrap;html=1;arcSize=50;fillColor=none;strokeColor=#FFFFFF;fontSize=14;align=left;spacingLeft=6;dashed=1;dashPattern=8 8;fontColor=#FFFFFF;" vertex="1" parent="1">
          <mxGeometry x="696" y="519" width="121" height="35" as="geometry" />
        </mxCell>
        <mxCell id="HGMKZrDhag_7oUJbCoah-55" value="" style="endArrow=none;dashed=1;html=1;dashPattern=1 3;strokeWidth=2;rounded=0;strokeColor=#EDF3F5;entryX=0.053;entryY=1.071;entryDx=0;entryDy=0;entryPerimeter=0;exitX=0;exitY=0.5;exitDx=0;exitDy=0;" edge="1" parent="1" source="HGMKZrDhag_7oUJbCoah-53">
          <mxGeometry width="50" height="50" relative="1" as="geometry">
            <mxPoint x="696" y="484" as="sourcePoint" />
            <mxPoint x="675" y="445" as="targetPoint" />
            <Array as="points">
              <mxPoint x="676" y="490" />
            </Array>
          </mxGeometry>
        </mxCell>
        <mxCell id="HGMKZrDhag_7oUJbCoah-56" value="" style="endArrow=none;dashed=1;html=1;dashPattern=1 3;strokeWidth=2;rounded=0;strokeColor=#EDF3F5;exitX=0;exitY=0.5;exitDx=0;exitDy=0;" edge="1" parent="1" source="HGMKZrDhag_7oUJbCoah-54">
          <mxGeometry width="50" height="50" relative="1" as="geometry">
            <mxPoint x="696" y="535" as="sourcePoint" />
            <mxPoint x="676" y="490" as="targetPoint" />
            <Array as="points">
              <mxPoint x="677" y="537" />
            </Array>
          </mxGeometry>
        </mxCell>
        <mxCell id="HGMKZrDhag_7oUJbCoah-57" value="leaf" style="verticalLabelPosition=middle;verticalAlign=middle;html=1;shape=mxgraph.basic.rect;fillColor2=none;strokeWidth=1;size=16;indent=100;topLeftStyle=default;topRightStyle=rounded;strokeColor=#FFFFFF;fillColor=none;bottomRightStyle=rounded;labelPosition=center;align=center;spacing=0;spacingRight=3;fontColor=#FFFFFF;dashed=1;dashPattern=8 8;" vertex="1" parent="1">
          <mxGeometry x="784" y="472" width="32" height="35" as="geometry" />
        </mxCell>
        <mxCell id="HGMKZrDhag_7oUJbCoah-58" value="leaf" style="verticalLabelPosition=middle;verticalAlign=middle;html=1;shape=mxgraph.basic.rect;fillColor2=none;strokeWidth=1;size=16;indent=100;topLeftStyle=default;topRightStyle=rounded;strokeColor=#FFFFFF;fillColor=none;bottomRightStyle=rounded;labelPosition=center;align=center;spacing=0;spacingRight=3;fontColor=#FFFFFF;dashed=1;dashPattern=8 8;" vertex="1" parent="1">
          <mxGeometry x="784" y="519" width="32" height="35" as="geometry" />
        </mxCell>
      </root>
    </mxGraphModel>
  </diagram>
  <diagram name="1" id="2jO4DKBbPGhfN44IFJfD">
    <mxGraphModel dx="855" dy="570" grid="0" gridSize="2" guides="1" tooltips="1" connect="1" arrows="1" fold="1" page="1" pageScale="1" pageWidth="3300" pageHeight="4681" background="#4D5766" math="0" shadow="0">
      <root>
        <mxCell id="GehNxyRLZ8iFV2p4zfdp-0" />
        <mxCell id="GehNxyRLZ8iFV2p4zfdp-1" parent="GehNxyRLZ8iFV2p4zfdp-0" />
        <mxCell id="GehNxyRLZ8iFV2p4zfdp-2" value="" style="rounded=1;whiteSpace=wrap;html=1;arcSize=2;fillColor=#001135;" vertex="1" parent="GehNxyRLZ8iFV2p4zfdp-1">
          <mxGeometry x="990" y="355" width="326" height="122" as="geometry" />
        </mxCell>
        <mxCell id="GehNxyRLZ8iFV2p4zfdp-3" value="&lt;div style=&quot;color: rgb(204, 202, 194); font-size: 16px; line-height: 20px; white-space-collapse: preserve;&quot;&gt;&lt;div style=&quot;font-size: 16px;&quot;&gt;&lt;div style=&quot;font-family: &amp;quot;JetBrains Mono&amp;quot;, &amp;quot;Fira Code&amp;quot;, Hasklig, Menlo, Monaco, &amp;quot;Courier New&amp;quot;, monospace, Menlo, Monaco, &amp;quot;Courier New&amp;quot;, monospace; font-size: 13px; line-height: 20px;&quot;&gt;&lt;div&gt;data &lt;span style=&quot;color: #f29e74;&quot;&gt;=&lt;/span&gt; &lt;span style=&quot;color: #73d0ff;&quot;&gt;Data&lt;/span&gt;(&lt;span style=&quot;color: #dfbfff;&quot;&gt;arguments&lt;/span&gt;.schema)&lt;/div&gt;&lt;div&gt;uptime_container &lt;span style=&quot;color: #f29e74;&quot;&gt;=&lt;/span&gt; data.uptime.&lt;span style=&quot;color: #ffd173;&quot;&gt;create&lt;/span&gt;()&lt;/div&gt;&lt;/div&gt;&lt;/div&gt;&lt;/div&gt;" style="text;html=1;align=left;verticalAlign=middle;resizable=0;points=[];autosize=1;strokeColor=none;fillColor=none;fontSize=16;fontFamily=JetBrains Mono;fontSource=https%3A%2F%2Ffonts.googleapis.com%2Fcss%3Ffamily%3DJetBrains%2BMono;labelBackgroundColor=none;" vertex="1" parent="GehNxyRLZ8iFV2p4zfdp-1">
          <mxGeometry x="1000" y="392.5" width="323" height="52" as="geometry" />
        </mxCell>
        <mxCell id="GehNxyRLZ8iFV2p4zfdp-4" value="" style="rounded=1;whiteSpace=wrap;html=1;arcSize=2;fillColor=#001135;strokeColor=none;fillStyle=auto;strokeWidth=0;perimeterSpacing=2;" vertex="1" parent="GehNxyRLZ8iFV2p4zfdp-1">
          <mxGeometry x="1012.5" y="564" width="281" height="265" as="geometry" />
        </mxCell>
        <mxCell id="GehNxyRLZ8iFV2p4zfdp-5" value="" style="verticalLabelPosition=bottom;verticalAlign=top;html=1;shape=mxgraph.basic.rect;fillColor2=none;strokeWidth=1;size=5.19;indent=50;topLeftStyle=rounded;topRightStyle=rounded;strokeColor=none;fillColor=#273142;" vertex="1" parent="GehNxyRLZ8iFV2p4zfdp-1">
          <mxGeometry x="1012.5" y="564" width="281" height="32" as="geometry" />
        </mxCell>
        <mxCell id="GehNxyRLZ8iFV2p4zfdp-6" value="&lt;font color=&quot;#ffffff&quot;&gt;/ &lt;span style=&quot;font-weight: normal;&quot;&gt;(root)&lt;/span&gt;&lt;/font&gt;" style="text;html=1;align=left;verticalAlign=middle;resizable=0;points=[];autosize=1;strokeColor=none;fillColor=none;fontSize=16;fontFamily=Google Sans;fontSource=https%3A%2F%2Ffonts.googleapis.com%2Fcss%3Ffamily%3DGoogle%2BSans;fontStyle=1" vertex="1" parent="GehNxyRLZ8iFV2p4zfdp-1">
          <mxGeometry x="1016.5" y="563" width="67" height="31" as="geometry" />
        </mxCell>
        <mxCell id="GehNxyRLZ8iFV2p4zfdp-7" value="" style="rounded=1;whiteSpace=wrap;html=1;arcSize=2;fillColor=#98a2ae;fontColor=#edf3f5;strokeColor=none;fillStyle=solid;" vertex="1" parent="GehNxyRLZ8iFV2p4zfdp-1">
          <mxGeometry x="1050.5" y="620" width="211" height="180" as="geometry" />
        </mxCell>
        <mxCell id="GehNxyRLZ8iFV2p4zfdp-8" value="" style="verticalLabelPosition=bottom;verticalAlign=top;html=1;shape=mxgraph.basic.rect;fillColor2=none;strokeWidth=1;size=3.89;indent=99.13;topLeftStyle=rounded;topRightStyle=rounded;strokeColor=none;fillColor=#EDF3F5;" vertex="1" parent="GehNxyRLZ8iFV2p4zfdp-1">
          <mxGeometry x="1050.5" y="620" width="211" height="32" as="geometry" />
        </mxCell>
        <mxCell id="GehNxyRLZ8iFV2p4zfdp-9" value="&lt;font color=&quot;#001135&quot;&gt;uptime&lt;/font&gt;" style="text;html=1;align=left;verticalAlign=middle;resizable=0;points=[];autosize=1;strokeColor=none;fillColor=none;fontSize=16;fontFamily=Google Sans;fontSource=https%3A%2F%2Ffonts.googleapis.com%2Fcss%3Ffamily%3DGoogle%2BSans;fontStyle=1" vertex="1" parent="GehNxyRLZ8iFV2p4zfdp-1">
          <mxGeometry x="1056.5" y="621" width="69" height="31" as="geometry" />
        </mxCell>
        <mxCell id="GehNxyRLZ8iFV2p4zfdp-10" value="&lt;font style=&quot;font-size: 14px;&quot;&gt;container&lt;/font&gt;" style="text;html=1;align=right;verticalAlign=middle;resizable=0;points=[];autosize=1;strokeColor=none;fillColor=none;fontSize=14;fontFamily=Google Sans;fontSource=https%3A%2F%2Ffonts.googleapis.com%2Fcss%3Ffamily%3DGoogle%2BSans;fontColor=#98A2AE;" vertex="1" parent="GehNxyRLZ8iFV2p4zfdp-1">
          <mxGeometry x="1211.5" y="564" width="78" height="29" as="geometry" />
        </mxCell>
        <mxCell id="GehNxyRLZ8iFV2p4zfdp-11" value="&lt;font style=&quot;font-size: 14px;&quot; color=&quot;#bec8d2&quot;&gt;container&lt;/font&gt;" style="text;html=1;align=right;verticalAlign=middle;resizable=0;points=[];autosize=1;strokeColor=none;fillColor=none;fontSize=14;fontFamily=Google Sans;fontSource=https%3A%2F%2Ffonts.googleapis.com%2Fcss%3Ffamily%3DGoogle%2BSans;" vertex="1" parent="GehNxyRLZ8iFV2p4zfdp-1">
          <mxGeometry x="1180.5" y="623" width="78" height="29" as="geometry" />
        </mxCell>
        <mxCell id="GehNxyRLZ8iFV2p4zfdp-12" value="" style="endArrow=none;dashed=1;html=1;dashPattern=1 3;strokeWidth=2;rounded=0;strokeColor=#EDF3F5;entryX=0.053;entryY=1.071;entryDx=0;entryDy=0;entryPerimeter=0;exitX=-0.008;exitY=0.094;exitDx=0;exitDy=0;exitPerimeter=0;" edge="1" parent="GehNxyRLZ8iFV2p4zfdp-1" source="GehNxyRLZ8iFV2p4zfdp-7" target="GehNxyRLZ8iFV2p4zfdp-5">
          <mxGeometry width="50" height="50" relative="1" as="geometry">
            <mxPoint x="1040.5" y="767" as="sourcePoint" />
            <mxPoint x="1090.5" y="717" as="targetPoint" />
            <Array as="points">
              <mxPoint x="1027.5" y="637" />
            </Array>
          </mxGeometry>
        </mxCell>
        <mxCell id="GehNxyRLZ8iFV2p4zfdp-13" value="Uptime" style="rounded=1;whiteSpace=wrap;html=1;arcSize=50;fillColor=#EDF3F5;strokeColor=none;fontSize=14;align=left;spacingLeft=6;" vertex="1" parent="GehNxyRLZ8iFV2p4zfdp-1">
          <mxGeometry x="1083.5" y="679" width="105" height="35" as="geometry" />
        </mxCell>
        <mxCell id="GehNxyRLZ8iFV2p4zfdp-14" value="Last Booted" style="rounded=1;whiteSpace=wrap;html=1;arcSize=50;fillColor=#EDF3F5;strokeColor=none;fontSize=14;align=left;spacingLeft=6;" vertex="1" parent="GehNxyRLZ8iFV2p4zfdp-1">
          <mxGeometry x="1083.5" y="726" width="105" height="35" as="geometry" />
        </mxCell>
        <mxCell id="GehNxyRLZ8iFV2p4zfdp-15" value="" style="endArrow=none;dashed=1;html=1;dashPattern=1 3;strokeWidth=2;rounded=0;strokeColor=#EDF3F5;entryX=0.053;entryY=1.071;entryDx=0;entryDy=0;entryPerimeter=0;exitX=0;exitY=0.5;exitDx=0;exitDy=0;" edge="1" parent="GehNxyRLZ8iFV2p4zfdp-1" source="GehNxyRLZ8iFV2p4zfdp-13">
          <mxGeometry width="50" height="50" relative="1" as="geometry">
            <mxPoint x="1083.5" y="691" as="sourcePoint" />
            <mxPoint x="1062.5" y="652" as="targetPoint" />
            <Array as="points">
              <mxPoint x="1063.5" y="697" />
            </Array>
          </mxGeometry>
        </mxCell>
        <mxCell id="GehNxyRLZ8iFV2p4zfdp-16" value="" style="endArrow=none;dashed=1;html=1;dashPattern=1 3;strokeWidth=2;rounded=0;strokeColor=#EDF3F5;exitX=0;exitY=0.5;exitDx=0;exitDy=0;" edge="1" parent="GehNxyRLZ8iFV2p4zfdp-1" source="GehNxyRLZ8iFV2p4zfdp-14">
          <mxGeometry width="50" height="50" relative="1" as="geometry">
            <mxPoint x="1083.5" y="742" as="sourcePoint" />
            <mxPoint x="1063.5" y="697" as="targetPoint" />
            <Array as="points">
              <mxPoint x="1064.5" y="744" />
            </Array>
          </mxGeometry>
        </mxCell>
        <mxCell id="GehNxyRLZ8iFV2p4zfdp-17" value="leaf" style="verticalLabelPosition=middle;verticalAlign=middle;html=1;shape=mxgraph.basic.rect;fillColor2=none;strokeWidth=1;size=16;indent=100;topLeftStyle=default;topRightStyle=rounded;strokeColor=none;fillColor=#BEC8D2;bottomRightStyle=rounded;labelPosition=center;align=center;spacing=0;spacingRight=3;fontColor=#FFFFFF;" vertex="1" parent="GehNxyRLZ8iFV2p4zfdp-1">
          <mxGeometry x="1171.5" y="679" width="32" height="35" as="geometry" />
        </mxCell>
        <mxCell id="GehNxyRLZ8iFV2p4zfdp-18" value="leaf" style="verticalLabelPosition=middle;verticalAlign=middle;html=1;shape=mxgraph.basic.rect;fillColor2=none;strokeWidth=1;size=16;indent=100;topLeftStyle=default;topRightStyle=rounded;strokeColor=none;fillColor=#BEC8D2;bottomRightStyle=rounded;labelPosition=center;align=center;spacing=0;spacingRight=3;fontColor=#FFFFFF;" vertex="1" parent="GehNxyRLZ8iFV2p4zfdp-1">
          <mxGeometry x="1171.5" y="726" width="32" height="35" as="geometry" />
        </mxCell>
        <mxCell id="GehNxyRLZ8iFV2p4zfdp-19" value="" style="endArrow=classic;html=1;rounded=0;strokeColor=#EDF3F5;strokeWidth=4;endFill=1;" edge="1" parent="GehNxyRLZ8iFV2p4zfdp-1">
          <mxGeometry width="50" height="50" relative="1" as="geometry">
            <mxPoint x="922" y="423" as="sourcePoint" />
            <mxPoint x="978" y="423.5" as="targetPoint" />
          </mxGeometry>
        </mxCell>
        <mxCell id="GehNxyRLZ8iFV2p4zfdp-20" value="" style="rounded=1;whiteSpace=wrap;html=1;arcSize=2;fillColor=none;strokeColor=default;fillStyle=dots;strokeWidth=2;perimeterSpacing=2;dashed=1;gradientColor=none;" vertex="1" parent="GehNxyRLZ8iFV2p4zfdp-1">
          <mxGeometry x="625" y="357" width="281" height="265" as="geometry" />
        </mxCell>
        <mxCell id="GehNxyRLZ8iFV2p4zfdp-21" value="" style="verticalLabelPosition=bottom;verticalAlign=top;html=1;shape=mxgraph.basic.rect;fillColor2=none;strokeWidth=1;size=5.19;indent=50;topLeftStyle=rounded;topRightStyle=rounded;strokeColor=none;fillColor=#273142;fillStyle=solid;" vertex="1" parent="GehNxyRLZ8iFV2p4zfdp-1">
          <mxGeometry x="625" y="357" width="281" height="32" as="geometry" />
        </mxCell>
        <mxCell id="GehNxyRLZ8iFV2p4zfdp-22" value="&lt;font color=&quot;#ffffff&quot;&gt;/ &lt;span style=&quot;font-weight: normal;&quot;&gt;(root)&lt;/span&gt;&lt;/font&gt;" style="text;html=1;align=left;verticalAlign=middle;resizable=0;points=[];autosize=1;strokeColor=none;fillColor=none;fontSize=16;fontFamily=Google Sans;fontSource=https%3A%2F%2Ffonts.googleapis.com%2Fcss%3Ffamily%3DGoogle%2BSans;fontStyle=1" vertex="1" parent="GehNxyRLZ8iFV2p4zfdp-1">
          <mxGeometry x="629" y="356" width="67" height="31" as="geometry" />
        </mxCell>
        <mxCell id="GehNxyRLZ8iFV2p4zfdp-23" value="" style="rounded=1;whiteSpace=wrap;html=1;arcSize=2;fillColor=none;fontColor=#edf3f5;strokeColor=#98A2AE;dashed=1;strokeWidth=2;" vertex="1" parent="GehNxyRLZ8iFV2p4zfdp-1">
          <mxGeometry x="663" y="413" width="211" height="180" as="geometry" />
        </mxCell>
        <mxCell id="GehNxyRLZ8iFV2p4zfdp-24" value="" style="verticalLabelPosition=bottom;verticalAlign=top;html=1;shape=mxgraph.basic.rect;fillColor2=none;strokeWidth=1;size=3.89;indent=99.13;topLeftStyle=rounded;topRightStyle=rounded;strokeColor=none;fillColor=#EDF3F5;" vertex="1" parent="GehNxyRLZ8iFV2p4zfdp-1">
          <mxGeometry x="663" y="413" width="211" height="32" as="geometry" />
        </mxCell>
        <mxCell id="GehNxyRLZ8iFV2p4zfdp-25" value="&lt;font color=&quot;#001135&quot;&gt;uptime&lt;/font&gt;" style="text;html=1;align=left;verticalAlign=middle;resizable=0;points=[];autosize=1;strokeColor=none;fillColor=none;fontSize=16;fontFamily=Google Sans;fontSource=https%3A%2F%2Ffonts.googleapis.com%2Fcss%3Ffamily%3DGoogle%2BSans;fontStyle=1" vertex="1" parent="GehNxyRLZ8iFV2p4zfdp-1">
          <mxGeometry x="669" y="414" width="69" height="31" as="geometry" />
        </mxCell>
        <mxCell id="GehNxyRLZ8iFV2p4zfdp-26" value="&lt;font style=&quot;font-size: 14px;&quot;&gt;container&lt;/font&gt;" style="text;html=1;align=right;verticalAlign=middle;resizable=0;points=[];autosize=1;strokeColor=none;fillColor=none;fontSize=14;fontFamily=Google Sans;fontSource=https%3A%2F%2Ffonts.googleapis.com%2Fcss%3Ffamily%3DGoogle%2BSans;fontColor=#98A2AE;" vertex="1" parent="GehNxyRLZ8iFV2p4zfdp-1">
          <mxGeometry x="824" y="357" width="78" height="29" as="geometry" />
        </mxCell>
        <mxCell id="GehNxyRLZ8iFV2p4zfdp-27" value="&lt;font style=&quot;font-size: 14px;&quot; color=&quot;#bec8d2&quot;&gt;container&lt;/font&gt;" style="text;html=1;align=right;verticalAlign=middle;resizable=0;points=[];autosize=1;strokeColor=none;fillColor=none;fontSize=14;fontFamily=Google Sans;fontSource=https%3A%2F%2Ffonts.googleapis.com%2Fcss%3Ffamily%3DGoogle%2BSans;" vertex="1" parent="GehNxyRLZ8iFV2p4zfdp-1">
          <mxGeometry x="793" y="416" width="78" height="29" as="geometry" />
        </mxCell>
        <mxCell id="GehNxyRLZ8iFV2p4zfdp-28" value="" style="endArrow=none;dashed=1;html=1;dashPattern=1 3;strokeWidth=2;rounded=0;strokeColor=#EDF3F5;entryX=0.053;entryY=1.071;entryDx=0;entryDy=0;entryPerimeter=0;exitX=-0.008;exitY=0.094;exitDx=0;exitDy=0;exitPerimeter=0;" edge="1" parent="GehNxyRLZ8iFV2p4zfdp-1" source="GehNxyRLZ8iFV2p4zfdp-23" target="GehNxyRLZ8iFV2p4zfdp-21">
          <mxGeometry width="50" height="50" relative="1" as="geometry">
            <mxPoint x="653" y="560" as="sourcePoint" />
            <mxPoint x="703" y="510" as="targetPoint" />
            <Array as="points">
              <mxPoint x="640" y="430" />
            </Array>
          </mxGeometry>
        </mxCell>
        <mxCell id="GehNxyRLZ8iFV2p4zfdp-29" value="Uptime" style="rounded=1;whiteSpace=wrap;html=1;arcSize=50;fillColor=none;strokeColor=#FFFFFF;fontSize=14;align=left;spacingLeft=6;dashed=1;dashPattern=8 8;fontColor=#FFFFFF;" vertex="1" parent="GehNxyRLZ8iFV2p4zfdp-1">
          <mxGeometry x="696" y="472" width="121" height="35" as="geometry" />
        </mxCell>
        <mxCell id="GehNxyRLZ8iFV2p4zfdp-30" value="Last Booted" style="rounded=1;whiteSpace=wrap;html=1;arcSize=50;fillColor=none;strokeColor=#FFFFFF;fontSize=14;align=left;spacingLeft=6;dashed=1;dashPattern=8 8;fontColor=#FFFFFF;" vertex="1" parent="GehNxyRLZ8iFV2p4zfdp-1">
          <mxGeometry x="696" y="519" width="121" height="35" as="geometry" />
        </mxCell>
        <mxCell id="GehNxyRLZ8iFV2p4zfdp-31" value="" style="endArrow=none;dashed=1;html=1;dashPattern=1 3;strokeWidth=2;rounded=0;strokeColor=#EDF3F5;entryX=0.053;entryY=1.071;entryDx=0;entryDy=0;entryPerimeter=0;exitX=0;exitY=0.5;exitDx=0;exitDy=0;" edge="1" parent="GehNxyRLZ8iFV2p4zfdp-1" source="GehNxyRLZ8iFV2p4zfdp-29">
          <mxGeometry width="50" height="50" relative="1" as="geometry">
            <mxPoint x="696" y="484" as="sourcePoint" />
            <mxPoint x="675" y="445" as="targetPoint" />
            <Array as="points">
              <mxPoint x="676" y="490" />
            </Array>
          </mxGeometry>
        </mxCell>
        <mxCell id="GehNxyRLZ8iFV2p4zfdp-32" value="" style="endArrow=none;dashed=1;html=1;dashPattern=1 3;strokeWidth=2;rounded=0;strokeColor=#EDF3F5;exitX=0;exitY=0.5;exitDx=0;exitDy=0;" edge="1" parent="GehNxyRLZ8iFV2p4zfdp-1" source="GehNxyRLZ8iFV2p4zfdp-30">
          <mxGeometry width="50" height="50" relative="1" as="geometry">
            <mxPoint x="696" y="535" as="sourcePoint" />
            <mxPoint x="676" y="490" as="targetPoint" />
            <Array as="points">
              <mxPoint x="677" y="537" />
            </Array>
          </mxGeometry>
        </mxCell>
        <mxCell id="GehNxyRLZ8iFV2p4zfdp-33" value="leaf" style="verticalLabelPosition=middle;verticalAlign=middle;html=1;shape=mxgraph.basic.rect;fillColor2=none;strokeWidth=1;size=16;indent=100;topLeftStyle=default;topRightStyle=rounded;strokeColor=#FFFFFF;fillColor=none;bottomRightStyle=rounded;labelPosition=center;align=center;spacing=0;spacingRight=3;fontColor=#FFFFFF;dashed=1;dashPattern=8 8;" vertex="1" parent="GehNxyRLZ8iFV2p4zfdp-1">
          <mxGeometry x="784" y="472" width="32" height="35" as="geometry" />
        </mxCell>
        <mxCell id="GehNxyRLZ8iFV2p4zfdp-34" value="leaf" style="verticalLabelPosition=middle;verticalAlign=middle;html=1;shape=mxgraph.basic.rect;fillColor2=none;strokeWidth=1;size=16;indent=100;topLeftStyle=default;topRightStyle=rounded;strokeColor=#FFFFFF;fillColor=none;bottomRightStyle=rounded;labelPosition=center;align=center;spacing=0;spacingRight=3;fontColor=#FFFFFF;dashed=1;dashPattern=8 8;" vertex="1" parent="GehNxyRLZ8iFV2p4zfdp-1">
          <mxGeometry x="784" y="519" width="32" height="35" as="geometry" />
        </mxCell>
        <mxCell id="HOPFhjxvUH-X9HnmUMg6-0" value="" style="endArrow=classic;html=1;rounded=0;strokeColor=#EDF3F5;strokeWidth=4;endFill=1;" edge="1" parent="GehNxyRLZ8iFV2p4zfdp-1">
          <mxGeometry width="50" height="50" relative="1" as="geometry">
            <mxPoint x="1143" y="492" as="sourcePoint" />
            <mxPoint x="1143" y="550.5" as="targetPoint" />
          </mxGeometry>
        </mxCell>
      </root>
    </mxGraphModel>
  </diagram>
</mxfile>
